<svg width="960" height="300" viewBox="0 0 960 300" fill="none" xmlns="http://www.w3.org/2000/svg">
<path d="M147.7 7C67.9001 7 3.90012 70.5 4.00012 149.6C4.10012 231 71.0001 293.2 146.6 292.1C222.2 293.3 289.5 231.5 289.5 149.4C289.6 71.1 225.6 7.1 147.7 7ZM213.1 209.3C212.7 213.1 210.3 215.1 207 216.4C204.4 217.5 202.1 216.6 199.9 215.3C172.7 198.9 142.9 194.3 111.8 196.1C99.9001 196.8 88.0001 198.7 76.4001 201.4C70.3001 202.8 65.5001 200.3 64.3001 195.1C63.1001 190.4 66.4001 186 72.4001 184.6C89.7001 180.4 107.4 178.6 123.9 178.2C154.5 178.7 182.4 184.7 207.9 200C211.4 202.1 213.5 204.9 213.1 209.3ZM214.3 177.2C204.1 171.3 193.4 166.3 182.1 162.9C146.3 151.9 110.3 150.6 74.0001 160.2C66.1001 162.3 60.4001 159.8 58.4001 153C56.6001 147 60.4001 141.2 68.0001 139.2C92.5001 132.5 117.3 130.5 142.6 132.8C168.2 135.1 192.5 141.5 215.4 153C218.8 154.7 222.1 156.6 225.4 158.6C229.4 161.1 231.1 164.4 231 168.5C230.7 176.9 221.9 181.6 214.3 177.2ZM231.5 133.4C214.1 123.4 195.3 117.3 175.6 113.6C149.4 108.7 123.2 107.6 96.7001 110.7C86.5001 111.9 76.4001 113.8 66.5001 116.5C58.6001 118.7 51.2001 115.1 49.2001 108.3C47.0001 100.5 51.0001 93.6 59.5001 91.2C81.2001 85.2 103.4 82.5 116.7 82.8C162.8 83 198.4 88.6 232 104.1C236.4 106.1 240.6 108.4 244.6 111C251.1 115.1 252.9 122.2 249.2 128.6C245.6 134.8 238 137.2 231.5 133.4Z" fill="black"/>
<path d="M870.8 184.2C876.5 167.8 881.7 152.9 887 137.9C889.1 132 891.3 126.1 893.2 120.1C894.1 117.3 895.6 116.3 898.6 116.4C904.3 116.6 909.9 116.4 915.6 116.5C921 116.5 921.3 116.9 919.4 121.8C912.8 139 906.2 156.1 899.6 173.2C893.5 188.9 887.3 204.7 881.2 220.4C880.8 221.3 880.5 222.2 880.1 223.2C869.4 249.6 846.5 249.4 827.3 240.8C824.8 239.7 824.1 238.2 825.2 235.7C827.2 231.4 829.3 227 831.2 222.6C832.3 220.1 833.7 219.3 836.2 220.9C839.2 222.8 842.7 223.4 846.2 223.5C854.4 223.7 859.2 216.8 856.1 209.4C846.8 187.1 837.5 164.8 828.4 142.4C827.2 139.5 825.8 138.7 822.9 138.9C818.9 139.1 814.9 139.2 810.9 138.9C807.3 138.6 806.5 139.9 806.5 143.3C806.7 165.6 806.5 187.9 806.7 210.3C806.7 214.9 805.5 216.5 800.9 216.1C795.8 215.7 790.6 215.8 785.4 216.1C781.8 216.3 780.9 214.9 781 211.5C781.1 189 780.9 166.5 781.2 144C781.2 139.9 780.3 138.6 776.1 138.8C768.3 139.1 769 139.8 769 131.6C769 127.8 769.1 123.9 769 120.1C768.9 117.1 769.9 115.7 773 116C774 116.1 775 115.9 776 116C780.6 116.9 781.3 114.7 781.3 110.6C781.2 88.9001 793.2 77.5001 815 78.4001C832.1 79.1001 832.1 79.1001 832.1 96.0001C832.1 97.2001 832.1 98.3001 832.1 99.5001C832.3 102.9 830.7 103.6 827.8 102.5C823.7 101 819.4 100.6 815 101C809.1 101.5 804.3 109.4 806.4 114.9C807.3 117.1 809.2 116.3 810.7 116.3C820.4 116.4 830 116.6 839.7 116.2C844 116 845.9 117.6 847.2 121.5C850.9 131.8 855 141.9 858.9 152.1C862.5 162.4 866.4 172.6 870.8 184.2Z" fill="black"/>
<path d="M538.4 136.8C525 113.6 490.6 105.2 470.3 126.4C469.9 126.9 469.5 127.5 468.2 127.1C468.2 125.2 468 123.1 468.2 121C468.7 117 467 115.7 463.1 115.9C457.8 116.2 452.4 116.1 447.1 115.9C443.8 115.8 442.8 117 442.8 120.3C442.9 160.6 442.9 200.9 442.8 241.2C442.8 244.4 443.9 245.2 446.9 245.1C452.4 244.9 457.9 244.8 463.4 245.1C467.5 245.3 468.4 243.8 468.3 240C468.1 228.6 468.2 217.1 468.2 204.6C469.9 206.2 470.6 206.9 471.3 207.5C488.7 222.2 513.7 221.4 530.2 205.6C547.1 189.5 550.6 158.1 538.4 136.8ZM514.1 185.1C507.9 193.7 497.1 197.3 486.8 194.2C476.2 191 468.5 180.9 468 169.8C467.9 168.6 468 167.5 468 166.3C468 154.6 472.2 145.2 482.9 139.7C494.1 133.9 506.9 137.3 514.2 147.6C521.5 158.1 521.5 174.7 514.1 185.1Z" fill="black"/>
<path d="M434.4 177.9C434.4 198.2 420.4 213.8 399.2 216.9C375.2 220.4 353.9 214.1 335 199C332.1 196.7 331.7 195 334.2 192.3C337.7 188.5 341 184.5 344.2 180.5C346.2 177.9 347.8 177.4 350.6 179.8C362.8 190.3 376.8 195.9 393.2 194C403.5 192.8 409.4 186.2 408.1 177.3C407.4 172.5 404.2 170.1 400.4 168.3C392.9 164.6 384.7 163.1 376.7 161C369.5 159.1 362.5 156.7 355.7 153.5C331.1 141.8 332.6 107.9 350 93.7997C358.6 86.7997 368.6 83.5997 379.4 83.0997C397 82.3997 413.2 86.8997 427.5 97.5997C430.6 99.8997 430.7 101.6 428.5 104.4C425.5 108.3 422.5 112.4 419.9 116.6C417.9 119.8 416.2 120 413.2 117.8C404.5 111.4 394.9 107.1 383.9 106.7C379.2 106.5 374.6 107 370.4 109.2C366 111.5 363.2 115.1 363.1 120.2C363 125.1 365.3 128.7 369.6 131.1C377.1 135.2 385.4 136.9 393.6 139C401.8 141.1 409.8 143.7 417.2 147.9C428.9 154.5 434.6 164.5 434.4 177.9Z" fill="black"/>
<path d="M605.5 114.1C576.5 113.7 552.1 137.3 552 165.9C551.8 195.2 574.7 218 604.5 218.2C634.6 218.4 658 195.9 658.1 166.5C658.2 137.2 635.4 114.4 605.5 114.1ZM605.1 195.4C589.3 195.3 577.9 183 577.9 166C577.9 149.2 589.3 137.1 604.9 137.1C620.4 137.1 632.5 149.8 632.7 166.3C633 182.9 621 195.5 605.1 195.4Z" fill="black"/>
<path d="M672 167.4C672 159.2 671.9 151.1 672.1 142.9C672.2 140.1 671.8 138.8 668.4 138.8C659.9 138.9 659.9 138.7 659.9 130.1C659.9 126.9 660.1 123.8 659.9 120.6C659.7 117.1 660.9 115.9 664.4 116C672.1 116.1 672.1 115.9 672.1 108.2C672.1 103.4 672.2 98.4999 672 93.6999C671.9 90.8999 672.8 89.8999 675.7 89.9999C681.7 90.1999 687.7 90.1999 693.7 89.9999C696.9 89.8999 697.7 91.2999 697.7 94.0999C697.6 100.3 697.8 106.4 697.6 112.6C697.5 115.5 698.5 116.3 701.3 116.2C707.1 116 713 116.3 718.8 116.1C722.4 116 723.5 117.4 723.3 120.8C723.1 125.5 723.1 130.1 723.3 134.8C723.4 138 722.5 139.3 719.1 139.2C713.3 139 707.4 139.3 701.6 139.1C698.6 139 697.6 139.7 697.6 142.9C697.8 156.7 697.6 170.5 697.7 184.4C697.7 192 700.9 194.9 708.5 194.6C712.3 194.5 716.1 193.7 719.5 191.9C722 190.6 723 191.7 723 194C723.1 199.3 723 204.7 723.1 210C723.1 212.1 721.9 213 720.4 213.7C709 218.9 697.2 219.8 685.7 214.7C676.2 210.5 672.6 201.9 672.2 192C671.7 183.7 672 175.5 672 167.4Z" fill="black"/>
<path d="M733 166.2C733 151.2 733.1 136.2 732.9 121.2C732.8 117.3 734 115.8 738 116C743.5 116.2 749 116.1 754.5 116C757.6 115.9 759 116.9 759 120.3C758.9 150.8 758.9 181.3 759 211.7C759 215 758 216.1 754.7 216C748.9 215.8 743 215.8 737.2 216C733.8 216.1 733 214.8 733 211.6C733.1 196.5 733 181.4 733 166.2Z" fill="black"/>
<path d="M761.9 88.7001C761.9 97.5001 754.9 104.5 746.1 104.6C737.3 104.6 729.9 97.2001 730 88.4001C730.1 79.9001 737.4 72.6001 746 72.5001C755 72.4001 762 79.5001 761.9 88.7001Z" fill="black"/>
<path d="M946 130.2C948.1 128 946.2 124.5 942.7 123.3C935.8 121 932.8 123.1 932.8 130.2C932.8 132.5 932.7 134.8 932.8 137.2C932.8 138.2 932.4 139.7 934.2 139.8C936.3 140 936 138.4 936.1 137.1C936.3 136 935.3 134.3 937.4 133.9C939.1 133.6 939.6 134.8 940.5 135.9C942.1 137.7 942.8 141.1 947 139.4C945.4 136.4 942.1 134.2 946 130.2ZM939.1 131C937.6 131 936.1 131.3 936 128.9C936 126.7 936.9 125.9 938.5 126.1C940.6 126.2 942.6 126.1 942.8 128.3C943.1 130.9 941 131.1 939.1 131Z" fill="black"/>
<path d="M939.3 116C930.5 116 923.4 123.1 923.4 131.8C923.4 140.3 930.4 147.4 938.9 147.5C947.7 147.6 954.9 140.6 955 131.9C955 123.3 947.9 116 939.3 116ZM939.2 145.8C932 145.9 925.7 139.6 925.6 132.2C925.5 124.4 931.6 118.1 939.2 118.1C946.8 118.1 953.1 124.5 953 132.1C952.8 139.4 946.5 145.7 939.2 145.8Z" fill="black"/>
<path d="M946 130.2C948.1 128 946.2 124.5 942.7 123.3C935.8 121 932.8 123.1 932.8 130.2C932.8 132.5 932.7 134.8 932.8 137.2C932.8 138.2 932.4 139.7 934.2 139.8C936.3 140 936 138.4 936.1 137.1C936.3 136 935.3 134.3 937.4 133.9C939.1 133.6 939.6 134.8 940.5 135.9C942.1 137.7 942.8 141.1 947 139.4C945.4 136.4 942.1 134.2 946 130.2ZM939.1 131C937.6 131 936.1 131.3 936 128.9C936 126.7 936.9 125.9 938.5 126.1C940.6 126.2 942.6 126.1 942.8 128.3C943.1 130.9 941 131.1 939.1 131Z" fill="black"/>
<path d="M946 130.2C948.1 128 946.2 124.5 942.7 123.3C935.8 121 932.8 123.1 932.8 130.2C932.8 132.5 932.7 134.8 932.8 137.2C932.8 138.2 932.4 139.7 934.2 139.8C936.3 140 936 138.4 936.1 137.1C936.3 136 935.3 134.3 937.4 133.9C939.1 133.6 939.6 134.8 940.5 135.9C942.1 137.7 942.8 141.1 947 139.4C945.4 136.4 942.1 134.2 946 130.2ZM939.1 131C937.6 131 936.1 131.3 936 128.9C936 126.7 936.9 125.9 938.5 126.1C940.6 126.2 942.6 126.1 942.8 128.3C943.1 130.9 941 131.1 939.1 131Z" fill="black"/>
</svg>
